<svg xmlns="http://www.w3.org/2000/svg" baseProfile="full" width="76" height="76" viewBox="0 0 76.00 76.00" enable-background="new 0 0 76.00 76.00"><path d="M43.542 56.208l.792-.792h-12.667l.792.792h11.083zm-5.542-18.604c1.749 0 2.771-1.376 2.771-3.563 0-2.186-1.022-3.563-2.771-3.563-1.749 0-2.771 1.376-2.771 3.563 0 2.186 1.022 3.563 2.771 3.563zm0-12.271h7.917c0-1.583-1.188-3.167-1.188-3.167h-13.458s-1.188 1.583-1.188 3.167h7.917zm0-4.75h9.5c1.583 3.167 1.583 7.917 1.583 9.5 0 12.667-3.167 12.667-3.563 19l.396 7.917c0 1.583-1.583 1.583-1.583 1.583h-12.667s-1.583 0-1.583-1.583l.396-7.917c-.396-6.333-3.563-6.333-3.563-19 0-1.583 0-6.333 1.583-9.5h9.5zm7.125 12.667h-1.583c-.437 0-1.188.354-1.188.792 0 .437.75.792 1.188.792h1.583c.437 0 .792-.354.792-.792 0-.437-.355-.792-.792-.792zm-14.25 0c-.437 0-.792.354-.792.792 0 .437.354.792.792.792h1.583c.437 0 1.188-.354 1.188-.792 0-.437-.75-.792-1.188-.792h-1.583z"/></svg>