<svg xmlns="http://www.w3.org/2000/svg" width="595.28" height="841.89"><path fill="#282828" d="M413.67 420.949c0 77.91-63.165 141.071-141.089 141.071-77.914 0-141.079-63.161-141.079-141.071 0-77.914 63.165-141.079 141.079-141.079 77.924 0 141.089 63.165 141.089 141.079z"/><path fill="#4879BC" d="M277.937 381.578v-22.069h139.96v12.251h88.401s-2.803 14.014-36.876 20.925c-25.217 5.127-51.525 3.594-51.525 33.026 0 29.424 36.832 36.779 36.832 36.779v14.718h-51.563s0-22.073-22.095-22.073c-22.094 0-22.094 22.073-22.094 22.073h-51.568v-14.718s36.822-7.355 36.822-36.779c0-36.776-66.294-44.133-66.294-44.133z"/><g fill="#F0F0F0"><path d="M177.933 362.937v23.188h24.457v-23.188h13.285v60.425h-13.285v-26.064h-24.457v26.064h-13.287v-60.425h13.287zM253.047 362.937l22.594 60.425h-13.791l-4.571-13.456h-22.596l-4.74 13.456h-13.37l22.85-60.425h13.624zm.762 37.066l-7.617-22.172h-.169l-7.87 22.172h15.656zM312.492 379.06c-.794-1.27-1.78-2.383-2.966-3.343-1.186-.959-2.524-1.705-4.021-2.245-1.492-.533-3.061-.803-4.697-.803-2.992 0-5.529.58-7.614 1.734-2.088 1.157-3.781 2.709-5.08 4.656-1.298 1.944-2.241 4.161-2.834 6.642-.593 2.483-.891 5.052-.891 7.701 0 2.54.298 5.008.891 7.406.593 2.399 1.536 4.557 2.834 6.473 1.299 1.919 2.992 3.459 5.08 4.612 2.085 1.157 4.622 1.734 7.614 1.734 4.064 0 7.237-1.238 9.521-3.723 2.291-2.483 3.685-5.754 4.193-9.817h12.869c-.339 3.781-1.213 7.193-2.624 10.241-1.411 3.045-3.274 5.641-5.586 7.787-2.315 2.145-5.023 3.778-8.131 4.907-3.106 1.129-6.518 1.691-10.243 1.691-4.625 0-8.787-.804-12.48-2.409-3.697-1.609-6.814-3.823-9.351-6.644-2.54-2.82-4.487-6.137-5.839-9.944-1.354-3.811-2.032-7.912-2.032-12.314 0-4.512.678-8.701 2.032-12.567 1.352-3.863 3.299-7.234 5.839-10.113 2.536-2.875 5.653-5.133 9.351-6.77 3.693-1.634 7.854-2.452 12.48-2.452 3.33 0 6.476.479 9.439 1.437 2.963.962 5.618 2.357 7.959 4.188 2.344 1.835 4.278 4.105 5.799 6.814 1.524 2.706 2.48 5.811 2.879 9.31h-12.87c-.225-1.523-.733-2.923-1.521-4.189zM344.548 362.937v25.051l23.611-25.051h16.587l-23.611 23.865 25.897 36.56h-16.672l-18.197-27.165-7.615 7.701v19.464h-13.289v-60.425h13.289zM170.944 462.12c.557 1.066 1.295 1.932 2.217 2.597.919.664 2 1.16 3.242 1.479 1.242.32 2.525.483 3.854.483.898 0 1.861-.075 2.89-.227 1.027-.15 1.991-.438 2.89-.871.898-.427 1.647-1.017 2.248-1.763.6-.746.898-1.699.898-2.859 0-1.242-.396-2.245-1.188-3.017-.791-.771-1.829-1.41-3.113-1.925-1.284-.514-2.741-.966-4.368-1.348-1.628-.389-3.273-.815-4.943-1.286-1.714-.427-3.384-.953-5.01-1.574-1.627-.621-3.082-1.424-4.367-2.408-1.284-.984-2.322-2.214-3.114-3.693-.793-1.474-1.188-3.261-1.188-5.361 0-2.352.503-4.396 1.51-6.134 1.005-1.73 2.322-3.18 3.949-4.333 1.626-1.153 3.469-2.013 5.522-2.57 2.056-.552 4.11-.834 6.165-.834 2.396 0 4.698.27 6.904.803 2.204.539 4.163 1.404 5.875 2.602s3.071 2.728 4.078 4.591c1.006 1.862 1.51 4.12 1.51 6.779h-9.762c-.086-1.374-.375-2.509-.867-3.405-.492-.903-1.146-1.605-1.958-2.12-.813-.515-1.745-.878-2.794-1.091-1.049-.214-2.195-.32-3.436-.32-.813 0-1.627.082-2.44.257-.814.17-1.553.471-2.216.897-.665.426-1.21.966-1.637 1.605-.43.64-.643 1.455-.643 2.439 0 .896.171 1.631.514 2.183.342.558 1.017 1.072 2.022 1.543 1.006.469 2.397.939 4.174 1.409 1.776.471 4.101 1.073 6.968 1.801.856.169 2.045.482 3.565.928 1.52.451 3.027 1.173 4.526 2.151 1.498.99 2.794 2.308 3.887 3.95 1.091 1.649 1.637 3.757 1.637 6.327 0 2.095-.408 4.045-1.22 5.845-.814 1.794-2.022 3.35-3.628 4.653-1.605 1.305-3.597 2.326-5.974 3.054-2.375.728-5.127 1.091-8.252 1.091-2.527 0-4.978-.313-7.353-.934-2.377-.621-4.475-1.594-6.294-2.922-1.82-1.323-3.266-3.017-4.335-5.073-1.07-2.051-1.583-4.497-1.541-7.319h9.762c0 1.543.277 2.848.834 3.92zM215.999 427.567l10.726 31.53h.129l10.146-31.53h14.192v45.853h-9.44v-32.495h-.129l-11.238 32.495h-7.77l-11.238-32.169h-.129v32.169h-9.44v-45.853h14.191zM266.648 427.567v45.853h-10.081v-45.853h10.081zM268.053 436.046v-8.479h37.572v8.479h-13.744v37.374h-10.082v-37.374h-13.746zM317.121 427.567v17.596h18.56v-17.596h10.084v45.853h-10.084v-19.778h-18.56v19.778h-10.091v-45.853h10.091zM359.05 462.12c.558 1.066 1.298 1.932 2.22 2.597.916.664 2.001 1.16 3.242 1.479 1.242.32 2.524.483 3.851.483.9 0 1.863-.075 2.892-.227 1.028-.15 1.991-.438 2.891-.871.897-.427 1.646-1.017 2.245-1.763.603-.746.9-1.699.9-2.859 0-1.242-.398-2.245-1.188-3.017-.79-.771-1.831-1.41-3.114-1.925-1.282-.514-2.74-.966-4.367-1.348-1.628-.389-3.274-.815-4.942-1.286-1.715-.427-3.387-.953-5.011-1.574-1.628-.621-3.082-1.424-4.368-2.408-1.282-.984-2.323-2.214-3.113-3.693-.794-1.474-1.188-3.261-1.188-5.361 0-2.352.505-4.396 1.508-6.134 1.007-1.73 2.323-3.18 3.951-4.333 1.624-1.153 3.468-2.013 5.521-2.57 2.055-.552 4.111-.834 6.165-.834 2.399 0 4.7.27 6.905.803 2.204.539 4.161 1.404 5.873 2.602s3.073 2.728 4.079 4.591c1.007 1.862 1.509 4.12 1.509 6.779h-9.759c-.088-1.374-.376-2.509-.868-3.405-.492-.903-1.145-1.605-1.96-2.12-.812-.515-1.743-.878-2.791-1.091-1.05-.214-2.194-.32-3.437-.32-.815 0-1.627.082-2.439.257-.815.17-1.556.471-2.217.897-.665.426-1.211.966-1.637 1.605-.43.64-.644 1.455-.644 2.439 0 .896.17 1.631.515 2.183.342.558 1.016 1.072 2.022 1.543 1.007.469 2.398.939 4.174 1.409 1.774.471 4.102 1.073 6.968 1.801.855.169 2.044.482 3.564.928 1.521.451 3.026 1.173 4.525 2.151 1.499.99 2.797 2.308 3.888 3.95 1.092 1.649 1.638 3.757 1.638 6.327 0 2.095-.408 4.045-1.22 5.845-.812 1.794-2.023 3.35-3.629 4.653-1.605 1.305-3.597 2.326-5.973 3.054-2.374.728-5.127 1.091-8.25 1.091-2.527 0-4.98-.313-7.356-.934-2.377-.621-4.472-1.594-6.291-2.922-1.821-1.323-3.267-3.017-4.336-5.073-1.069-2.051-1.584-4.497-1.54-7.319h9.759c-.001 1.543.277 2.848.833 3.92z"/></g></svg>