<svg xmlns="http://www.w3.org/2000/svg" width="595.28" height="841.89"><path fill="#F0F0F0" d="M404.457 420.948c0 77.912-63.165 141.072-141.086 141.072-77.914 0-141.079-63.16-141.079-141.072 0-77.913 63.165-141.078 141.079-141.078 77.921 0 141.086 63.165 141.086 141.078z"/><path fill="#4879BC" d="M268.727 381.578v-22.069h139.958v12.251h88.401s-2.803 14.014-36.876 20.925c-25.217 5.127-51.525 3.594-51.525 33.027 0 29.424 36.832 36.779 36.832 36.779v14.717h-51.563s0-22.072-22.095-22.072c-22.094 0-22.094 22.072-22.094 22.072h-51.565v-14.718s36.821-7.355 36.821-36.779c0-36.777-66.294-44.133-66.294-44.133z"/><g fill="#282828"><path d="M168.723 362.936v23.188h24.457v-23.188h13.285v60.425h-13.285v-26.065h-24.457v26.065h-13.287v-60.425h13.287zM243.837 362.936l22.594 60.425h-13.791l-4.571-13.457h-22.596l-4.74 13.457h-13.37l22.85-60.425h13.624zm.762 37.066l-7.617-22.172h-.169l-7.87 22.172h15.656zM303.282 379.059c-.794-1.27-1.78-2.383-2.966-3.343-1.186-.959-2.524-1.705-4.021-2.245-1.492-.533-3.061-.803-4.697-.803-2.991 0-5.528.58-7.613 1.734-2.088 1.157-3.781 2.709-5.08 4.656-1.298 1.944-2.241 4.161-2.834 6.642-.593 2.483-.891 5.052-.891 7.701 0 2.54.298 5.008.891 7.406.593 2.399 1.536 4.557 2.834 6.473 1.299 1.919 2.992 3.459 5.08 4.612 2.085 1.157 4.622 1.734 7.613 1.734 4.064 0 7.237-1.238 9.522-3.723 2.291-2.483 3.684-5.754 4.192-9.817h12.869c-.339 3.781-1.213 7.193-2.624 10.241-1.411 3.045-3.274 5.641-5.586 7.787-2.315 2.145-5.023 3.777-8.13 4.906-3.107 1.129-6.518 1.691-10.244 1.691-4.625 0-8.786-.803-12.479-2.408-3.697-1.609-6.814-3.824-9.351-6.644-2.54-2.82-4.487-6.138-5.839-9.944-1.354-3.811-2.032-7.912-2.032-12.314 0-4.512.678-8.701 2.032-12.567 1.352-3.863 3.299-7.234 5.839-10.113 2.536-2.875 5.653-5.133 9.351-6.77 3.693-1.634 7.854-2.452 12.479-2.452 3.33 0 6.476.479 9.44 1.437 2.962.962 5.617 2.357 7.958 4.188 2.344 1.835 4.278 4.105 5.799 6.814 1.524 2.706 2.48 5.811 2.879 9.31h-12.87c-.226-1.523-.734-2.922-1.521-4.189zM335.337 362.936v25.051l23.609-25.051h16.587l-23.611 23.865 25.897 36.56h-16.672l-18.197-27.166-7.613 7.701v19.464h-13.289v-60.425h13.289zM161.734 462.119c.557 1.066 1.295 1.932 2.217 2.598.919.664 2 1.16 3.242 1.479 1.242.32 2.525.484 3.854.484.898 0 1.861-.076 2.89-.227 1.027-.15 1.991-.439 2.89-.871.898-.428 1.647-1.018 2.248-1.764.6-.746.898-1.699.898-2.859 0-1.242-.396-2.244-1.188-3.016-.791-.771-1.829-1.41-3.113-1.926-1.284-.514-2.741-.965-4.368-1.348-1.628-.389-3.273-.814-4.943-1.285-1.714-.428-3.384-.953-5.01-1.574-1.627-.621-3.082-1.424-4.367-2.408-1.284-.984-2.322-2.215-3.114-3.693-.793-1.475-1.188-3.262-1.188-5.361 0-2.352.503-4.396 1.51-6.135 1.005-1.73 2.322-3.18 3.949-4.332 1.626-1.154 3.469-2.014 5.522-2.57 2.056-.553 4.11-.834 6.165-.834 2.396 0 4.698.27 6.904.803 2.204.539 4.163 1.404 5.875 2.602s3.071 2.727 4.078 4.59c1.006 1.863 1.51 4.121 1.51 6.779h-9.762c-.086-1.373-.375-2.508-.867-3.404-.492-.904-1.146-1.605-1.958-2.121-.813-.514-1.745-.877-2.794-1.09-1.049-.215-2.195-.32-3.436-.32-.813 0-1.627.082-2.44.256-.814.17-1.553.471-2.216.898-.665.426-1.21.965-1.637 1.605-.43.639-.643 1.455-.643 2.439 0 .896.171 1.631.514 2.182.342.559 1.017 1.072 2.022 1.543 1.006.469 2.397.939 4.174 1.41s4.101 1.072 6.968 1.801c.856.168 2.045.482 3.565.928 1.52.451 3.027 1.172 4.526 2.15 1.498.99 2.794 2.309 3.887 3.951 1.091 1.648 1.637 3.756 1.637 6.326 0 2.096-.408 4.045-1.22 5.846-.814 1.793-2.022 3.35-3.628 4.652-1.605 1.305-3.597 2.326-5.974 3.055-2.375.727-5.127 1.09-8.252 1.09-2.527 0-4.978-.312-7.353-.934-2.377-.621-4.475-1.594-6.294-2.922-1.82-1.322-3.266-3.016-4.335-5.072-1.07-2.051-1.583-4.498-1.541-7.32h9.762c0 1.542.277 2.847.834 3.919zM206.789 427.566l10.726 31.531h.129l10.146-31.531h14.192v45.854h-9.44v-32.496h-.129l-11.238 32.496h-7.77l-11.238-32.17h-.129v32.17h-9.44v-45.854h14.191zM257.438 427.566v45.854h-10.081v-45.854h10.081zM258.843 436.045v-8.479h37.571v8.479h-13.743v37.375h-10.082v-37.375h-13.746zM307.91 427.566v17.596h18.56v-17.596h10.084v45.854h-10.084v-19.779h-18.56v19.779h-10.09v-45.854h10.09zM349.837 462.119c.558 1.066 1.298 1.932 2.22 2.598.916.664 2.001 1.16 3.242 1.479 1.242.32 2.524.484 3.851.484.9 0 1.863-.076 2.892-.227s1.991-.439 2.891-.871c.897-.428 1.646-1.018 2.245-1.764.603-.746.9-1.699.9-2.859 0-1.242-.398-2.244-1.188-3.016s-1.831-1.41-3.114-1.926c-1.282-.514-2.74-.965-4.367-1.348-1.628-.389-3.274-.814-4.942-1.285-1.715-.428-3.387-.953-5.011-1.574-1.628-.621-3.082-1.424-4.368-2.408-1.282-.984-2.323-2.215-3.113-3.693-.794-1.475-1.188-3.262-1.188-5.361 0-2.352.505-4.396 1.508-6.135 1.007-1.73 2.323-3.18 3.951-4.332 1.624-1.154 3.468-2.014 5.521-2.57 2.055-.553 4.111-.834 6.165-.834 2.399 0 4.7.27 6.905.803 2.204.539 4.161 1.404 5.873 2.602s3.073 2.727 4.079 4.59c1.007 1.863 1.509 4.121 1.509 6.779h-9.759c-.088-1.373-.376-2.508-.868-3.404-.492-.904-1.145-1.605-1.96-2.121-.812-.514-1.743-.877-2.791-1.09-1.05-.215-2.194-.32-3.437-.32-.815 0-1.627.082-2.439.256-.815.17-1.556.471-2.217.898-.665.426-1.211.965-1.637 1.605-.43.639-.644 1.455-.644 2.439 0 .896.17 1.631.515 2.182.342.559 1.016 1.072 2.022 1.543 1.007.469 2.398.939 4.174 1.41 1.774.471 4.102 1.072 6.968 1.801.855.168 2.044.482 3.564.928 1.521.451 3.026 1.172 4.525 2.15 1.499.99 2.797 2.309 3.888 3.951 1.092 1.648 1.638 3.756 1.638 6.326 0 2.096-.408 4.045-1.22 5.846-.812 1.793-2.023 3.35-3.629 4.652-1.605 1.305-3.597 2.326-5.973 3.055-2.374.727-5.127 1.09-8.25 1.09-2.527 0-4.98-.312-7.356-.934-2.377-.621-4.472-1.594-6.291-2.922-1.821-1.322-3.267-3.016-4.336-5.072-1.069-2.051-1.584-4.498-1.54-7.32h9.759c-.001 1.542.277 2.847.833 3.919z"/></g></svg>