<svg xmlns="http://www.w3.org/2000/svg" width="595.28" height="841.89"><path fill="#282828" d="M463.956 420.945c0 91.854-74.464 166.314-166.314 166.314-91.859 0-166.317-74.461-166.317-166.314 0-91.854 74.458-166.315 166.317-166.315 91.85 0 166.314 74.461 166.314 166.315z"/><g fill="#F0F0F0"><path d="M205.154 308.188v23.214h24.487v-23.214h13.302v60.5h-13.302v-26.097h-24.487v26.097h-13.304v-60.5h13.304zM280.361 308.188l22.623 60.5h-13.811l-4.574-13.476h-22.625l-4.746 13.476h-13.387l22.878-60.5h13.642zm.763 37.11l-7.626-22.197h-.17l-7.88 22.197h15.676zM339.874 324.331c-.791-1.274-1.776-2.386-2.963-3.347-1.188-.96-2.531-1.708-4.025-2.247-1.497-.534-3.064-.805-4.703-.805-2.995 0-5.538.578-7.626 1.733-2.091 1.162-3.783 2.713-5.083 4.665-1.3 1.947-2.248 4.163-2.838 6.65-.597 2.486-.892 5.055-.892 7.71 0 2.544.295 5.011.892 7.416.59 2.398 1.538 4.559 2.838 6.48 1.3 1.921 2.992 3.459 5.083 4.615 2.088 1.161 4.631 1.739 7.626 1.739 4.069 0 7.246-1.244 9.532-3.73 2.288-2.486 3.686-5.758 4.194-9.826h12.878c-.339 3.786-1.215 7.202-2.624 10.254-1.413 3.045-3.278 5.645-5.595 7.792-2.317 2.147-5.026 3.786-8.132 4.916-3.108 1.131-6.524 1.696-10.254 1.696-4.634 0-8.797-.811-12.498-2.418-3.702-1.607-6.822-3.824-9.362-6.649-2.54-2.826-4.493-6.147-5.846-9.959-1.356-3.812-2.035-7.918-2.035-12.326 0-4.521.679-8.715 2.035-12.583 1.353-3.868 3.306-7.246 5.846-10.128 2.54-2.876 5.66-5.137 9.362-6.775 3.701-1.639 7.864-2.455 12.498-2.455 3.334 0 6.48.478 9.447 1.438 2.967.961 5.619 2.361 7.965 4.195 2.342 1.833 4.279 4.106 5.802 6.818 1.526 2.713 2.486 5.821 2.882 9.325h-12.878c-.226-1.525-.734-2.925-1.526-4.194zM371.964 308.188v25.079l23.638-25.079h16.608l-23.641 23.893 25.93 36.607h-16.693l-18.216-27.201-7.626 7.711v19.49h-13.303v-60.5h13.303zM198.156 407.492c.558 1.073 1.297 1.94 2.22 2.605.92.666 2.003 1.155 3.246 1.476s2.529.483 3.858.483c.899 0 1.864-.075 2.894-.226 1.028-.15 1.993-.439 2.893-.866.9-.428 1.65-1.018 2.252-1.771.6-.747.899-1.701.899-2.856 0-1.243-.397-2.254-1.19-3.026-.793-.767-1.832-1.413-3.117-1.928-1.286-.516-2.744-.961-4.373-1.351-1.63-.383-3.278-.81-4.95-1.287-1.716-.427-3.388-.948-5.016-1.576-1.629-.615-3.086-1.419-4.373-2.411-1.286-.979-2.325-2.216-3.117-3.691-.795-1.482-1.19-3.271-1.19-5.369 0-2.361.504-4.408 1.512-6.141 1.006-1.739 2.325-3.184 3.954-4.339 1.628-1.162 3.473-2.016 5.529-2.575 2.058-.559 4.116-.835 6.172-.835 2.4 0 4.705.271 6.913.804 2.208.534 4.168 1.4 5.883 2.606 1.714 1.199 3.075 2.731 4.083 4.596 1.008 1.865 1.512 4.126 1.512 6.781h-9.773c-.087-1.368-.376-2.505-.868-3.409-.493-.897-1.147-1.607-1.961-2.122-.814-.515-1.747-.873-2.798-1.093-1.05-.214-2.197-.32-3.438-.32-.815 0-1.63.088-2.444.258-.815.169-1.555.471-2.219.897-.665.434-1.212.967-1.639 1.607-.43.647-.644 1.463-.644 2.449 0 .897.171 1.626.515 2.185.343.553 1.018 1.068 2.025 1.539 1.006.477 2.4.948 4.179 1.419s4.105 1.067 6.977 1.796c.856.176 2.047.483 3.569.936 1.521.452 3.031 1.168 4.532 2.153 1.5.986 2.797 2.305 3.891 3.956 1.093 1.651 1.64 3.762 1.64 6.329 0 2.104-.408 4.051-1.222 5.853-.814 1.802-2.025 3.353-3.633 4.665-1.607 1.307-3.601 2.323-5.98 3.052-2.378.729-5.133 1.093-8.262 1.093-2.53 0-4.984-.314-7.362-.93-2.38-.621-4.48-1.601-6.301-2.926-1.823-1.331-3.271-3.026-4.341-5.08-1.072-2.06-1.585-4.502-1.543-7.334h9.773c-.002 1.544.277 2.85.833 3.924zM243.268 372.9l10.738 31.571h.129l10.158-31.571h14.209v45.906h-9.451v-32.531h-.129l-11.252 32.531h-7.78l-11.252-32.212h-.129v32.212h-9.451v-45.906h14.21zM293.98 372.9v45.906h-10.097v-45.906h10.097zM295.387 381.39v-8.49h37.615v8.489h-13.761v37.417h-10.094v-37.416h-13.76zM344.505 372.9v17.619h18.583v-17.619h10.094v45.906h-10.094v-19.804h-18.583v19.804h-10.094v-45.906h10.094zM386.484 407.492c.559 1.073 1.297 1.94 2.22 2.605.92.666 2.003 1.155 3.246 1.476s2.527.483 3.858.483c.898 0 1.865-.075 2.895-.226 1.027-.15 1.991-.439 2.892-.866.901-.428 1.648-1.018 2.251-1.771.6-.747.898-1.701.898-2.856 0-1.243-.396-2.254-1.187-3.026-.795-.767-1.834-1.413-3.121-1.928-1.284-.516-2.744-.961-4.37-1.351-1.633-.383-3.278-.81-4.951-1.287-1.718-.427-3.388-.948-5.014-1.576-1.633-.615-3.09-1.419-4.377-2.411-1.284-.979-2.323-2.216-3.114-3.691-.798-1.482-1.193-3.271-1.193-5.369 0-2.361.506-4.408 1.514-6.141 1.005-1.739 2.323-3.184 3.956-4.339 1.626-1.162 3.472-2.016 5.525-2.575 2.06-.559 4.119-.835 6.172-.835 2.402 0 4.707.271 6.914.804 2.21.534 4.169 1.4 5.883 2.606 1.715 1.199 3.077 2.731 4.082 4.596 1.011 1.865 1.513 4.126 1.513 6.781h-9.773c-.084-1.368-.373-2.505-.869-3.409-.49-.897-1.146-1.607-1.959-2.122-.816-.515-1.746-.873-2.798-1.093-1.052-.214-2.197-.32-3.438-.32-.816 0-1.633.088-2.446.258-.812.169-1.554.471-2.219.897-.666.434-1.212.967-1.64 1.607-.427.647-.64 1.463-.64 2.449 0 .897.169 1.626.515 2.185.339.553 1.017 1.068 2.021 1.539 1.008.477 2.402.948 4.182 1.419 1.777.471 4.104 1.067 6.977 1.796.854.176 2.047.483 3.566.936 1.522.452 3.033 1.168 4.533 2.153 1.501.986 2.798 2.305 3.894 3.956 1.093 1.651 1.639 3.762 1.639 6.329 0 2.104-.408 4.051-1.225 5.853-.812 1.802-2.021 3.353-3.629 4.665-1.607 1.307-3.604 2.323-5.984 3.052-2.376.729-5.13 1.093-8.26 1.093-2.53 0-4.982-.314-7.362-.93-2.38-.621-4.48-1.601-6.301-2.926-1.824-1.331-3.269-3.026-4.343-5.08-1.07-2.06-1.582-4.502-1.541-7.334h9.773c0 1.544.277 2.85.835 3.924z"/></g><path fill="#4879BC" d="M190.562 445.945v-22.095h140.12v12.266h88.511s-2.801 14.031-36.921 20.951c-25.242 5.133-51.59 3.598-51.59 33.065 0 29.462 36.877 36.83 36.877 36.83v14.733h-51.62s0-22.102-22.128-22.102c-22.122 0-22.122 22.102-22.122 22.102h-51.621v-14.733s36.858-7.368 36.858-36.83c0-36.821-66.364-44.187-66.364-44.187z"/></svg>