<svg xmlns="http://www.w3.org/2000/svg" width="595.28" height="841.89"><path fill="#282828" d="M434.804 420.941c0 95.297-77.256 172.551-172.549 172.551-95.295 0-172.55-77.254-172.55-172.551 0-95.289 77.255-172.544 172.55-172.544 95.293 0 172.549 77.256 172.549 172.544z"/><path fill="#4879BC" d="M268.807 364.445v-26.992h171.167v14.984h108.121s-3.428 17.139-45.1 25.591c-30.844 6.271-63.021 4.396-63.021 40.391 0 35.988 45.049 44.988 45.049 44.988v17.998h-63.066s0-26.998-27.021-26.998c-27.023 0-27.023 26.998-27.023 26.998h-63.059v-17.998s45.025-9 45.025-44.988c-.001-44.977-81.072-53.974-81.072-53.974z"/><g fill="#F0F0F0"><path d="M146.494 341.645v28.361h29.913v-28.361h16.249v73.903h-16.249v-31.878h-29.913v31.877h-16.251v-73.903h16.251zM238.363 341.645l27.635 73.903h-16.867l-5.591-16.456h-27.637l-5.796 16.456h-16.354l27.946-73.903h16.664zm.932 45.335l-9.315-27.119h-.208l-9.626 27.119h19.149zM311.067 361.365c-.972-1.553-2.175-2.914-3.625-4.088-1.45-1.173-3.088-2.086-4.917-2.746-1.826-.652-3.743-.981-5.745-.981-3.659 0-6.761.709-9.312 2.121-2.554 1.415-4.625 3.313-6.212 5.694-1.588 2.378-2.743 5.09-3.468 8.123-.724 3.037-1.089 6.179-1.089 9.419 0 3.106.365 6.125 1.089 9.059.726 2.934 1.88 5.572 3.468 7.916 1.587 2.347 3.659 4.23 6.212 5.642 2.551 1.416 5.653 2.121 9.312 2.121 4.97 0 8.852-1.516 11.645-4.553 2.799-3.038 4.502-7.037 5.123-12.008h15.736c-.414 4.625-1.484 8.798-3.209 12.526-1.727 3.724-4.004 6.899-6.831 9.522-2.831 2.624-6.141 4.621-9.938 6.002-3.798 1.38-7.971 2.071-12.526 2.071-5.658 0-10.747-.986-15.264-2.95-4.521-1.967-8.333-4.675-11.436-8.127-3.107-3.447-5.489-7.505-7.143-12.161-1.657-4.66-2.485-9.677-2.485-15.061 0-5.519.829-10.642 2.485-15.371 1.653-4.726 4.036-8.849 7.143-12.37 3.103-3.516 6.915-6.278 11.436-8.28 4.518-1.998 9.606-2.999 15.264-2.999 4.072 0 7.92.586 11.544 1.756 3.621 1.178 6.866 2.885 9.727 5.124 2.866 2.244 5.231 5.021 7.091 8.335 1.863 3.309 3.033 7.106 3.521 11.386h-15.736c-.276-1.862-.898-3.572-1.86-5.122zM350.267 341.645v30.639l28.875-30.639h20.287l-28.877 29.19 31.674 44.713h-20.393l-22.256-33.223-9.311 9.419v23.804h-16.254v-73.903h16.255zM137.946 462.951c.681 1.309 1.584 2.367 2.711 3.18 1.124.814 2.447 1.416 3.966 1.807s3.089.592 4.713.592c1.098 0 2.276-.094 3.534-.277 1.256-.186 2.436-.537 3.534-1.062 1.099-.521 2.016-1.242 2.75-2.16.732-.912 1.098-2.078 1.098-3.492 0-1.52-.484-2.75-1.453-3.693-.968-.939-2.238-1.725-3.808-2.355-1.57-.629-3.352-1.178-5.343-1.648-1.99-.473-4.003-.994-6.046-1.572-2.096-.521-4.138-1.162-6.127-1.926-1.99-.756-3.77-1.736-5.342-2.945-1.571-1.201-2.84-2.707-3.809-4.514-.97-1.807-1.454-3.992-1.454-6.559 0-2.88.616-5.381 1.847-7.502 1.229-2.121 2.84-3.888 4.83-5.3 1.989-1.415 4.242-2.461 6.754-3.144 2.514-.679 5.028-1.021 7.54-1.021 2.932 0 5.747.331 8.445.981 2.696.656 5.091 1.713 7.185 3.183 2.095 1.465 3.756 3.337 4.988 5.614 1.231 2.279 1.847 5.041 1.847 8.289h-11.939c-.105-1.678-.458-3.065-1.06-4.165-.603-1.102-1.403-1.965-2.396-2.593-.995-.63-2.134-1.07-3.417-1.336-1.283-.261-2.685-.391-4.202-.391-.995 0-1.99.104-2.985.315-.995.206-1.898.575-2.709 1.097-.813.525-1.48 1.18-2.002 1.964-.525.786-.786 1.782-.786 2.987 0 1.096.209 1.99.629 2.67.418.678 1.243 1.307 2.474 1.883 1.229.578 2.932 1.154 5.104 1.73 2.173.574 5.015 1.307 8.522 2.195 1.046.211 2.5.59 4.36 1.141 1.859.551 3.703 1.43 5.536 2.631 1.833 1.207 3.417 2.818 4.754 4.832 1.334 2.018 2.002 4.594 2.002 7.736 0 2.564-.499 4.945-1.492 7.148-.995 2.197-2.474 4.094-4.437 5.693-1.964 1.596-4.399 2.844-7.307 3.732-2.904.891-6.27 1.334-10.092 1.334-3.091 0-6.088-.383-8.993-1.139-2.907-.76-5.473-1.953-7.697-3.574-2.227-1.621-3.994-3.693-5.302-6.205-1.31-2.514-1.937-5.5-1.885-8.957h11.939c0 1.89.34 3.486 1.021 4.796zM193.051 420.694l13.119 38.566h.157l12.408-38.566h17.358v56.08h-11.546v-39.744h-.157l-13.746 39.744h-9.502l-13.746-39.348h-.157v39.348h-11.546v-56.08h17.358zM254.999 420.694v56.08h-12.331v-56.08h12.331zM256.716 431.062v-10.369h45.955v10.369h-16.81v45.711h-12.331v-45.711h-16.814zM316.724 420.694v21.521h22.695v-21.521h12.336v56.08h-12.336v-24.191h-22.695v24.191h-12.334v-56.08h12.334zM368.001 462.951c.682 1.309 1.586 2.367 2.715 3.18 1.119.814 2.445 1.416 3.965 1.807s3.088.592 4.709.592c1.102 0 2.277-.094 3.537-.277 1.258-.186 2.436-.537 3.535-1.062 1.098-.521 2.014-1.242 2.746-2.16.736-.912 1.102-2.078 1.102-3.492 0-1.52-.486-2.75-1.453-3.693-.967-.939-2.24-1.725-3.809-2.355-1.57-.629-3.354-1.178-5.344-1.648-1.99-.473-4.004-.994-6.043-1.572-2.098-.521-4.143-1.162-6.129-1.926-1.99-.756-3.77-1.736-5.342-2.945-1.57-1.201-2.844-2.707-3.809-4.514-.971-1.807-1.455-3.992-1.455-6.559 0-2.88.619-5.381 1.846-7.502 1.23-2.121 2.842-3.888 4.832-5.3 1.986-1.415 4.242-2.461 6.754-3.144 2.512-.679 5.029-1.021 7.541-1.021 2.934 0 5.748.331 8.445.981 2.695.656 5.088 1.713 7.182 3.183 2.094 1.465 3.758 3.337 4.99 5.614 1.23 2.279 1.844 5.041 1.844 8.289h-11.934c-.107-1.678-.461-3.065-1.064-4.165-.6-1.102-1.398-1.965-2.396-2.593-.992-.63-2.131-1.07-3.412-1.336-1.285-.261-2.686-.391-4.203-.391-.998 0-1.99.104-2.984.315-.998.206-1.902.575-2.711 1.097-.814.525-1.48 1.18-2.002 1.964-.527.786-.787 1.782-.787 2.987 0 1.096.209 1.99.629 2.67.418.678 1.242 1.307 2.475 1.883 1.23.578 2.934 1.154 5.104 1.73 2.172.574 5.018 1.307 8.523 2.195 1.047.211 2.5.59 4.359 1.141s3.701 1.43 5.535 2.631c1.832 1.207 3.42 2.818 4.756 4.832 1.334 2.018 2.002 4.594 2.002 7.736 0 2.564-.5 4.945-1.492 7.148-.994 2.197-2.475 4.094-4.438 5.693-1.965 1.596-4.398 2.844-7.307 3.732-2.902.891-6.271 1.334-10.09 1.334-3.092 0-6.092-.383-8.998-1.139-2.906-.76-5.469-1.953-7.693-3.574-2.229-1.621-3.996-3.693-5.305-6.205-1.307-2.514-1.936-5.5-1.883-8.957h11.936c-.001 1.89.341 3.486 1.021 4.796z"/></g></svg>