<?xml version="1.0" encoding="utf-8"?>
<!-- Generator: Adobe Illustrator 15.0.0, SVG Export Plug-In . SVG Version: 6.00 Build 0)  -->
<!DOCTYPE svg PUBLIC "-//W3C//DTD SVG 1.1//EN" "http://www.w3.org/Graphics/SVG/1.1/DTD/svg11.dtd">
<svg version="1.1" id="Layer_1" xmlns="http://www.w3.org/2000/svg" xmlns:xlink="http://www.w3.org/1999/xlink" x="0px" y="0px"
	 width="595.28px" height="841.89px" viewBox="0 0 595.28 841.89" enable-background="new 0 0 595.28 841.89" xml:space="preserve">
<g>
	<path fill="#F0F0F0" d="M404.457,420.948c0,77.912-63.165,141.072-141.086,141.072c-77.914,0-141.079-63.16-141.079-141.072
		c0-77.913,63.165-141.078,141.079-141.078C341.292,279.87,404.457,343.035,404.457,420.948z"/>
	<path fill="#4879BC" d="M268.727,381.578v-22.069h139.958v12.251h88.401c0,0-2.803,14.014-36.876,20.925
		c-25.217,5.127-51.525,3.594-51.525,33.027c0,29.424,36.832,36.779,36.832,36.779v14.717h-51.563c0,0,0-22.072-22.095-22.072
		c-22.094,0-22.094,22.072-22.094,22.072h-51.565V462.49c0,0,36.821-7.355,36.821-36.779
		C335.021,388.934,268.727,381.578,268.727,381.578z"/>
	<g>
		<g>
			<path fill="#282828" d="M168.723,362.936v23.188h24.457v-23.188h13.285v60.425H193.18v-26.065h-24.457v26.065h-13.287v-60.425
				H168.723z"/>
			<path fill="#282828" d="M243.837,362.936l22.594,60.425H252.64l-4.571-13.457h-22.596l-4.74,13.457h-13.37l22.85-60.425H243.837z
				 M244.599,400.002l-7.617-22.172h-0.169l-7.87,22.172H244.599z"/>
			<path fill="#282828" d="M303.282,379.059c-0.794-1.27-1.78-2.383-2.966-3.343c-1.186-0.959-2.524-1.705-4.021-2.245
				c-1.492-0.533-3.061-0.803-4.697-0.803c-2.991,0-5.528,0.58-7.613,1.734c-2.088,1.157-3.781,2.709-5.08,4.656
				c-1.298,1.944-2.241,4.161-2.834,6.642c-0.593,2.483-0.891,5.052-0.891,7.701c0,2.54,0.298,5.008,0.891,7.406
				c0.593,2.399,1.536,4.557,2.834,6.473c1.299,1.919,2.992,3.459,5.08,4.612c2.085,1.157,4.622,1.734,7.613,1.734
				c4.064,0,7.237-1.238,9.522-3.723c2.291-2.483,3.684-5.754,4.192-9.817h12.869c-0.339,3.781-1.213,7.193-2.624,10.241
				c-1.411,3.045-3.274,5.641-5.586,7.787c-2.315,2.145-5.023,3.777-8.13,4.906c-3.107,1.129-6.518,1.691-10.244,1.691
				c-4.625,0-8.786-0.803-12.479-2.408c-3.697-1.609-6.814-3.824-9.351-6.644c-2.54-2.82-4.487-6.138-5.839-9.944
				c-1.354-3.811-2.032-7.912-2.032-12.314c0-4.512,0.678-8.701,2.032-12.567c1.352-3.863,3.299-7.234,5.839-10.113
				c2.536-2.875,5.653-5.133,9.351-6.77c3.693-1.634,7.854-2.452,12.479-2.452c3.33,0,6.476,0.479,9.44,1.437
				c2.962,0.962,5.617,2.357,7.958,4.188c2.344,1.835,4.278,4.105,5.799,6.814c1.524,2.706,2.48,5.811,2.879,9.31h-12.87
				C304.577,381.725,304.069,380.326,303.282,379.059z"/>
			<path fill="#282828" d="M335.337,362.936v25.051l23.609-25.051h16.587l-23.611,23.865l25.897,36.56h-16.672l-18.197-27.166
				l-7.613,7.701v19.464h-13.289v-60.425H335.337z"/>
		</g>
		<g>
			<path fill="#282828" d="M161.734,462.119c0.557,1.066,1.295,1.932,2.217,2.598c0.919,0.664,2,1.16,3.242,1.479
				c1.242,0.32,2.525,0.484,3.854,0.484c0.898,0,1.861-0.076,2.89-0.227c1.027-0.15,1.991-0.439,2.89-0.871
				c0.898-0.428,1.647-1.018,2.248-1.764c0.6-0.746,0.898-1.699,0.898-2.859c0-1.242-0.396-2.244-1.188-3.016
				c-0.791-0.771-1.829-1.41-3.113-1.926c-1.284-0.514-2.741-0.965-4.368-1.348c-1.628-0.389-3.273-0.814-4.943-1.285
				c-1.714-0.428-3.384-0.953-5.01-1.574c-1.627-0.621-3.082-1.424-4.367-2.408c-1.284-0.984-2.322-2.215-3.114-3.693
				c-0.793-1.475-1.188-3.262-1.188-5.361c0-2.352,0.503-4.396,1.51-6.135c1.005-1.73,2.322-3.18,3.949-4.332
				c1.626-1.154,3.469-2.014,5.522-2.57c2.056-0.553,4.11-0.834,6.165-0.834c2.396,0,4.698,0.27,6.904,0.803
				c2.204,0.539,4.163,1.404,5.875,2.602s3.071,2.727,4.078,4.59c1.006,1.863,1.51,4.121,1.51,6.779h-9.762
				c-0.086-1.373-0.375-2.508-0.867-3.404c-0.492-0.904-1.146-1.605-1.958-2.121c-0.813-0.514-1.745-0.877-2.794-1.09
				c-1.049-0.215-2.195-0.32-3.436-0.32c-0.813,0-1.627,0.082-2.44,0.256c-0.814,0.17-1.553,0.471-2.216,0.898
				c-0.665,0.426-1.21,0.965-1.637,1.605c-0.43,0.639-0.643,1.455-0.643,2.439c0,0.896,0.171,1.631,0.514,2.182
				c0.342,0.559,1.017,1.072,2.022,1.543c1.006,0.469,2.397,0.939,4.174,1.41s4.101,1.072,6.968,1.801
				c0.856,0.168,2.045,0.482,3.565,0.928c1.52,0.451,3.027,1.172,4.526,2.15c1.498,0.99,2.794,2.309,3.887,3.951
				c1.091,1.648,1.637,3.756,1.637,6.326c0,2.096-0.408,4.045-1.22,5.846c-0.814,1.793-2.022,3.35-3.628,4.652
				c-1.605,1.305-3.597,2.326-5.974,3.055c-2.375,0.727-5.127,1.09-8.252,1.09c-2.527,0-4.978-0.312-7.353-0.934
				c-2.377-0.621-4.475-1.594-6.294-2.922c-1.82-1.322-3.266-3.016-4.335-5.072c-1.07-2.051-1.583-4.498-1.541-7.32h9.762
				C160.9,459.742,161.177,461.047,161.734,462.119z"/>
			<path fill="#282828" d="M206.789,427.566l10.726,31.531h0.129l10.146-31.531h14.192v45.854h-9.44v-32.496h-0.129l-11.238,32.496
				h-7.77l-11.238-32.17h-0.129v32.17h-9.44v-45.854H206.789z"/>
			<path fill="#282828" d="M257.438,427.566v45.854h-10.081v-45.854H257.438z"/>
			<path fill="#282828" d="M258.843,436.045v-8.479h37.571v8.479h-13.743v37.375h-10.082v-37.375H258.843z"/>
			<path fill="#282828" d="M307.91,427.566v17.596h18.56v-17.596h10.084v45.854H326.47v-19.779h-18.56v19.779h-10.09v-45.854H307.91
				z"/>
			<path fill="#282828" d="M349.837,462.119c0.558,1.066,1.298,1.932,2.22,2.598c0.916,0.664,2.001,1.16,3.242,1.479
				c1.242,0.32,2.524,0.484,3.851,0.484c0.9,0,1.863-0.076,2.892-0.227s1.991-0.439,2.891-0.871
				c0.897-0.428,1.646-1.018,2.245-1.764c0.603-0.746,0.9-1.699,0.9-2.859c0-1.242-0.398-2.244-1.188-3.016s-1.831-1.41-3.114-1.926
				c-1.282-0.514-2.74-0.965-4.367-1.348c-1.628-0.389-3.274-0.814-4.942-1.285c-1.715-0.428-3.387-0.953-5.011-1.574
				c-1.628-0.621-3.082-1.424-4.368-2.408c-1.282-0.984-2.323-2.215-3.113-3.693c-0.794-1.475-1.188-3.262-1.188-5.361
				c0-2.352,0.505-4.396,1.508-6.135c1.007-1.73,2.323-3.18,3.951-4.332c1.624-1.154,3.468-2.014,5.521-2.57
				c2.055-0.553,4.111-0.834,6.165-0.834c2.399,0,4.7,0.27,6.905,0.803c2.204,0.539,4.161,1.404,5.873,2.602s3.073,2.727,4.079,4.59
				c1.007,1.863,1.509,4.121,1.509,6.779h-9.759c-0.088-1.373-0.376-2.508-0.868-3.404c-0.492-0.904-1.145-1.605-1.96-2.121
				c-0.812-0.514-1.743-0.877-2.791-1.09c-1.05-0.215-2.194-0.32-3.437-0.32c-0.815,0-1.627,0.082-2.439,0.256
				c-0.815,0.17-1.556,0.471-2.217,0.898c-0.665,0.426-1.211,0.965-1.637,1.605c-0.43,0.639-0.644,1.455-0.644,2.439
				c0,0.896,0.17,1.631,0.515,2.182c0.342,0.559,1.016,1.072,2.022,1.543c1.007,0.469,2.398,0.939,4.174,1.41
				c1.774,0.471,4.102,1.072,6.968,1.801c0.855,0.168,2.044,0.482,3.564,0.928c1.521,0.451,3.026,1.172,4.525,2.15
				c1.499,0.99,2.797,2.309,3.888,3.951c1.092,1.648,1.638,3.756,1.638,6.326c0,2.096-0.408,4.045-1.22,5.846
				c-0.812,1.793-2.023,3.35-3.629,4.652c-1.605,1.305-3.597,2.326-5.973,3.055c-2.374,0.727-5.127,1.09-8.25,1.09
				c-2.527,0-4.98-0.312-7.356-0.934c-2.377-0.621-4.472-1.594-6.291-2.922c-1.821-1.322-3.267-3.016-4.336-5.072
				c-1.069-2.051-1.584-4.498-1.54-7.32h9.759C349.003,459.742,349.281,461.047,349.837,462.119z"/>
		</g>
	</g>
</g>
</svg>
