<?xml version="1.0" encoding="utf-8"?>
<!-- Generator: Adobe Illustrator 15.0.0, SVG Export Plug-In . SVG Version: 6.00 Build 0)  -->
<!DOCTYPE svg PUBLIC "-//W3C//DTD SVG 1.1//EN" "http://www.w3.org/Graphics/SVG/1.1/DTD/svg11.dtd">
<svg version="1.1" id="Layer_1" xmlns="http://www.w3.org/2000/svg" xmlns:xlink="http://www.w3.org/1999/xlink" x="0px" y="0px"
	 width="595.28px" height="841.89px" viewBox="0 0 595.28 841.89" enable-background="new 0 0 595.28 841.89" xml:space="preserve">
<g>
	<path fill="#282828" d="M413.67,420.949c0,77.91-63.165,141.071-141.089,141.071c-77.914,0-141.079-63.161-141.079-141.071
		c0-77.914,63.165-141.079,141.079-141.079C350.505,279.87,413.67,343.035,413.67,420.949z"/>
	<path fill="#4879BC" d="M277.937,381.578v-22.069h139.96v12.251h88.401c0,0-2.803,14.014-36.876,20.925
		c-25.217,5.127-51.525,3.594-51.525,33.026c0,29.424,36.832,36.779,36.832,36.779v14.718h-51.563c0,0,0-22.073-22.095-22.073
		c-22.094,0-22.094,22.073-22.094,22.073h-51.568V462.49c0,0,36.822-7.355,36.822-36.779
		C344.231,388.935,277.937,381.578,277.937,381.578z"/>
	<g>
		<g>
			<g>
				<path fill="#F0F0F0" d="M177.933,362.937v23.188h24.457v-23.188h13.285v60.425H202.39v-26.064h-24.457v26.064h-13.287v-60.425
					H177.933z"/>
				<path fill="#F0F0F0" d="M253.047,362.937l22.594,60.425H261.85l-4.571-13.456h-22.596l-4.74,13.456h-13.37l22.85-60.425H253.047
					z M253.809,400.003l-7.617-22.172h-0.169l-7.87,22.172H253.809z"/>
				<path fill="#F0F0F0" d="M312.492,379.06c-0.794-1.27-1.78-2.383-2.966-3.343c-1.186-0.959-2.524-1.705-4.021-2.245
					c-1.492-0.533-3.061-0.803-4.697-0.803c-2.992,0-5.529,0.58-7.614,1.734c-2.088,1.157-3.781,2.709-5.08,4.656
					c-1.298,1.944-2.241,4.161-2.834,6.642c-0.593,2.483-0.891,5.052-0.891,7.701c0,2.54,0.298,5.008,0.891,7.406
					c0.593,2.399,1.536,4.557,2.834,6.473c1.299,1.919,2.992,3.459,5.08,4.612c2.085,1.157,4.622,1.734,7.614,1.734
					c4.064,0,7.237-1.238,9.521-3.723c2.291-2.483,3.685-5.754,4.193-9.817h12.869c-0.339,3.781-1.213,7.193-2.624,10.241
					c-1.411,3.045-3.274,5.641-5.586,7.787c-2.315,2.145-5.023,3.778-8.131,4.907c-3.106,1.129-6.518,1.691-10.243,1.691
					c-4.625,0-8.787-0.804-12.48-2.409c-3.697-1.609-6.814-3.823-9.351-6.644c-2.54-2.82-4.487-6.137-5.839-9.944
					c-1.354-3.811-2.032-7.912-2.032-12.314c0-4.512,0.678-8.701,2.032-12.567c1.352-3.863,3.299-7.234,5.839-10.113
					c2.536-2.875,5.653-5.133,9.351-6.77c3.693-1.634,7.854-2.452,12.48-2.452c3.33,0,6.476,0.479,9.439,1.437
					c2.963,0.962,5.618,2.357,7.959,4.188c2.344,1.835,4.278,4.105,5.799,6.814c1.524,2.706,2.48,5.811,2.879,9.31h-12.87
					C313.788,381.726,313.28,380.326,312.492,379.06z"/>
				<path fill="#F0F0F0" d="M344.548,362.937v25.051l23.611-25.051h16.587l-23.611,23.865l25.897,36.56H370.36l-18.197-27.165
					l-7.615,7.701v19.464h-13.289v-60.425H344.548z"/>
			</g>
			<g>
				<path fill="#F0F0F0" d="M170.944,462.12c0.557,1.066,1.295,1.932,2.217,2.597c0.919,0.664,2,1.16,3.242,1.479
					c1.242,0.32,2.525,0.483,3.854,0.483c0.898,0,1.861-0.075,2.89-0.227c1.027-0.15,1.991-0.438,2.89-0.871
					c0.898-0.427,1.647-1.017,2.248-1.763c0.6-0.746,0.898-1.699,0.898-2.859c0-1.242-0.396-2.245-1.188-3.017
					c-0.791-0.771-1.829-1.41-3.113-1.925c-1.284-0.514-2.741-0.966-4.368-1.348c-1.628-0.389-3.273-0.815-4.943-1.286
					c-1.714-0.427-3.384-0.953-5.01-1.574c-1.627-0.621-3.082-1.424-4.367-2.408c-1.284-0.984-2.322-2.214-3.114-3.693
					c-0.793-1.474-1.188-3.261-1.188-5.361c0-2.352,0.503-4.396,1.51-6.134c1.005-1.73,2.322-3.18,3.949-4.333
					c1.626-1.153,3.469-2.013,5.522-2.57c2.056-0.552,4.11-0.834,6.165-0.834c2.396,0,4.698,0.27,6.904,0.803
					c2.204,0.539,4.163,1.404,5.875,2.602s3.071,2.728,4.078,4.591c1.006,1.862,1.51,4.12,1.51,6.779h-9.762
					c-0.086-1.374-0.375-2.509-0.867-3.405c-0.492-0.903-1.146-1.605-1.958-2.12c-0.813-0.515-1.745-0.878-2.794-1.091
					c-1.049-0.214-2.195-0.32-3.436-0.32c-0.813,0-1.627,0.082-2.44,0.257c-0.814,0.17-1.553,0.471-2.216,0.897
					c-0.665,0.426-1.21,0.966-1.637,1.605c-0.43,0.64-0.643,1.455-0.643,2.439c0,0.896,0.171,1.631,0.514,2.183
					c0.342,0.558,1.017,1.072,2.022,1.543c1.006,0.469,2.397,0.939,4.174,1.409c1.776,0.471,4.101,1.073,6.968,1.801
					c0.856,0.169,2.045,0.482,3.565,0.928c1.52,0.451,3.027,1.173,4.526,2.151c1.498,0.99,2.794,2.308,3.887,3.95
					c1.091,1.649,1.637,3.757,1.637,6.327c0,2.095-0.408,4.045-1.22,5.845c-0.814,1.794-2.022,3.35-3.628,4.653
					c-1.605,1.305-3.597,2.326-5.974,3.054c-2.375,0.728-5.127,1.091-8.252,1.091c-2.527,0-4.978-0.313-7.353-0.934
					c-2.377-0.621-4.475-1.594-6.294-2.922c-1.82-1.323-3.266-3.017-4.335-5.073c-1.07-2.051-1.583-4.497-1.541-7.319h9.762
					C170.11,459.743,170.387,461.048,170.944,462.12z"/>
				<path fill="#F0F0F0" d="M215.999,427.567l10.726,31.53h0.129l10.146-31.53h14.192v45.853h-9.44v-32.495h-0.129l-11.238,32.495
					h-7.77l-11.238-32.169h-0.129v32.169h-9.44v-45.853H215.999z"/>
				<path fill="#F0F0F0" d="M266.648,427.567v45.853h-10.081v-45.853H266.648z"/>
				<path fill="#F0F0F0" d="M268.053,436.046v-8.479h37.572v8.479h-13.744v37.374h-10.082v-37.374H268.053z"/>
				<path fill="#F0F0F0" d="M317.121,427.567v17.596h18.56v-17.596h10.084v45.853h-10.084v-19.778h-18.56v19.778H307.03v-45.853
					H317.121z"/>
				<path fill="#F0F0F0" d="M359.05,462.12c0.558,1.066,1.298,1.932,2.22,2.597c0.916,0.664,2.001,1.16,3.242,1.479
					c1.242,0.32,2.524,0.483,3.851,0.483c0.9,0,1.863-0.075,2.892-0.227c1.028-0.15,1.991-0.438,2.891-0.871
					c0.897-0.427,1.646-1.017,2.245-1.763c0.603-0.746,0.9-1.699,0.9-2.859c0-1.242-0.398-2.245-1.188-3.017
					c-0.79-0.771-1.831-1.41-3.114-1.925c-1.282-0.514-2.74-0.966-4.367-1.348c-1.628-0.389-3.274-0.815-4.942-1.286
					c-1.715-0.427-3.387-0.953-5.011-1.574c-1.628-0.621-3.082-1.424-4.368-2.408c-1.282-0.984-2.323-2.214-3.113-3.693
					c-0.794-1.474-1.188-3.261-1.188-5.361c0-2.352,0.505-4.396,1.508-6.134c1.007-1.73,2.323-3.18,3.951-4.333
					c1.624-1.153,3.468-2.013,5.521-2.57c2.055-0.552,4.111-0.834,6.165-0.834c2.399,0,4.7,0.27,6.905,0.803
					c2.204,0.539,4.161,1.404,5.873,2.602s3.073,2.728,4.079,4.591c1.007,1.862,1.509,4.12,1.509,6.779h-9.759
					c-0.088-1.374-0.376-2.509-0.868-3.405c-0.492-0.903-1.145-1.605-1.96-2.12c-0.812-0.515-1.743-0.878-2.791-1.091
					c-1.05-0.214-2.194-0.32-3.437-0.32c-0.815,0-1.627,0.082-2.439,0.257c-0.815,0.17-1.556,0.471-2.217,0.897
					c-0.665,0.426-1.211,0.966-1.637,1.605c-0.43,0.64-0.644,1.455-0.644,2.439c0,0.896,0.17,1.631,0.515,2.183
					c0.342,0.558,1.016,1.072,2.022,1.543c1.007,0.469,2.398,0.939,4.174,1.409c1.774,0.471,4.102,1.073,6.968,1.801
					c0.855,0.169,2.044,0.482,3.564,0.928c1.521,0.451,3.026,1.173,4.525,2.151c1.499,0.99,2.797,2.308,3.888,3.95
					c1.092,1.649,1.638,3.757,1.638,6.327c0,2.095-0.408,4.045-1.22,5.845c-0.812,1.794-2.023,3.35-3.629,4.653
					c-1.605,1.305-3.597,2.326-5.973,3.054c-2.374,0.728-5.127,1.091-8.25,1.091c-2.527,0-4.98-0.313-7.356-0.934
					c-2.377-0.621-4.472-1.594-6.291-2.922c-1.821-1.323-3.267-3.017-4.336-5.073c-1.069-2.051-1.584-4.497-1.54-7.319h9.759
					C358.216,459.743,358.494,461.048,359.05,462.12z"/>
			</g>
		</g>
	</g>
</g>
</svg>
