<?xml version="1.0" encoding="utf-8"?>
<!-- Generator: Adobe Illustrator 15.0.0, SVG Export Plug-In . SVG Version: 6.00 Build 0)  -->
<!DOCTYPE svg PUBLIC "-//W3C//DTD SVG 1.1//EN" "http://www.w3.org/Graphics/SVG/1.1/DTD/svg11.dtd">
<svg version="1.1" id="Layer_1" xmlns="http://www.w3.org/2000/svg" xmlns:xlink="http://www.w3.org/1999/xlink" x="0px" y="0px"
	 width="595.28px" height="841.89px" viewBox="0 0 595.28 841.89" enable-background="new 0 0 595.28 841.89" xml:space="preserve">
<g>
	<path fill="#282828" d="M434.804,420.941c0,95.297-77.256,172.551-172.549,172.551c-95.295,0-172.55-77.254-172.55-172.551
		c0-95.289,77.255-172.544,172.55-172.544C357.548,248.397,434.804,325.653,434.804,420.941z"/>
	<path fill="#4879BC" d="M268.807,364.445v-26.992h171.167v14.984h108.121c0,0-3.428,17.139-45.1,25.591
		c-30.844,6.271-63.021,4.396-63.021,40.391c0,35.988,45.049,44.988,45.049,44.988v17.998h-63.066c0,0,0-26.998-27.021-26.998
		c-27.023,0-27.023,26.998-27.023,26.998h-63.059v-17.998c0,0,45.025-9,45.025-44.988
		C349.878,373.442,268.807,364.445,268.807,364.445z"/>
	<g>
		<g>
			<g>
				<path fill="#F0F0F0" d="M146.494,341.645v28.361h29.913v-28.361h16.249v73.903h-16.249V383.67h-29.913v31.877h-16.251v-73.903
					H146.494z"/>
				<path fill="#F0F0F0" d="M238.363,341.645l27.635,73.903h-16.867l-5.591-16.456h-27.637l-5.796,16.456h-16.354l27.946-73.903
					H238.363z M239.295,386.98l-9.315-27.119h-0.208l-9.626,27.119H239.295z"/>
				<path fill="#F0F0F0" d="M311.067,361.365c-0.972-1.553-2.175-2.914-3.625-4.088c-1.45-1.173-3.088-2.086-4.917-2.746
					c-1.826-0.652-3.743-0.981-5.745-0.981c-3.659,0-6.761,0.709-9.312,2.121c-2.554,1.415-4.625,3.313-6.212,5.694
					c-1.588,2.378-2.743,5.09-3.468,8.123c-0.724,3.037-1.089,6.179-1.089,9.419c0,3.106,0.365,6.125,1.089,9.059
					c0.726,2.934,1.88,5.572,3.468,7.916c1.587,2.347,3.659,4.23,6.212,5.642c2.551,1.416,5.653,2.121,9.312,2.121
					c4.97,0,8.852-1.516,11.645-4.553c2.799-3.038,4.502-7.037,5.123-12.008h15.736c-0.414,4.625-1.484,8.798-3.209,12.526
					c-1.727,3.724-4.004,6.899-6.831,9.522c-2.831,2.624-6.141,4.621-9.938,6.002c-3.798,1.38-7.971,2.071-12.526,2.071
					c-5.658,0-10.747-0.986-15.264-2.95c-4.521-1.967-8.333-4.675-11.436-8.127c-3.107-3.447-5.489-7.505-7.143-12.161
					c-1.657-4.66-2.485-9.677-2.485-15.061c0-5.519,0.829-10.642,2.485-15.371c1.653-4.726,4.036-8.849,7.143-12.37
					c3.103-3.516,6.915-6.278,11.436-8.28c4.518-1.998,9.606-2.999,15.264-2.999c4.072,0,7.92,0.586,11.544,1.756
					c3.621,1.178,6.866,2.885,9.727,5.124c2.866,2.244,5.231,5.021,7.091,8.335c1.863,3.309,3.033,7.106,3.521,11.386h-15.736
					C312.651,364.625,312.029,362.915,311.067,361.365z"/>
				<path fill="#F0F0F0" d="M350.267,341.645v30.639l28.875-30.639h20.287l-28.877,29.19l31.674,44.713h-20.393l-22.256-33.223
					l-9.311,9.419v23.804h-16.254v-73.903H350.267z"/>
			</g>
			<g>
				<path fill="#F0F0F0" d="M137.946,462.951c0.681,1.309,1.584,2.367,2.711,3.18c1.124,0.814,2.447,1.416,3.966,1.807
					s3.089,0.592,4.713,0.592c1.098,0,2.276-0.094,3.534-0.277c1.256-0.186,2.436-0.537,3.534-1.062
					c1.099-0.521,2.016-1.242,2.75-2.16c0.732-0.912,1.098-2.078,1.098-3.492c0-1.52-0.484-2.75-1.453-3.693
					c-0.968-0.939-2.238-1.725-3.808-2.355c-1.57-0.629-3.352-1.178-5.343-1.648c-1.99-0.473-4.003-0.994-6.046-1.572
					c-2.096-0.521-4.138-1.162-6.127-1.926c-1.99-0.756-3.77-1.736-5.342-2.945c-1.571-1.201-2.84-2.707-3.809-4.514
					c-0.97-1.807-1.454-3.992-1.454-6.559c0-2.88,0.616-5.381,1.847-7.502c1.229-2.121,2.84-3.888,4.83-5.3
					c1.989-1.415,4.242-2.461,6.754-3.144c2.514-0.679,5.028-1.021,7.54-1.021c2.932,0,5.747,0.331,8.445,0.981
					c2.696,0.656,5.091,1.713,7.185,3.183c2.095,1.465,3.756,3.337,4.988,5.614c1.231,2.279,1.847,5.041,1.847,8.289h-11.939
					c-0.105-1.678-0.458-3.065-1.06-4.165c-0.603-1.102-1.403-1.965-2.396-2.593c-0.995-0.63-2.134-1.07-3.417-1.336
					c-1.283-0.261-2.685-0.391-4.202-0.391c-0.995,0-1.99,0.104-2.985,0.315c-0.995,0.206-1.898,0.575-2.709,1.097
					c-0.813,0.525-1.48,1.18-2.002,1.964c-0.525,0.786-0.786,1.782-0.786,2.987c0,1.096,0.209,1.99,0.629,2.67
					c0.418,0.678,1.243,1.307,2.474,1.883c1.229,0.578,2.932,1.154,5.104,1.73c2.173,0.574,5.015,1.307,8.522,2.195
					c1.046,0.211,2.5,0.59,4.36,1.141c1.859,0.551,3.703,1.43,5.536,2.631c1.833,1.207,3.417,2.818,4.754,4.832
					c1.334,2.018,2.002,4.594,2.002,7.736c0,2.564-0.499,4.945-1.492,7.148c-0.995,2.197-2.474,4.094-4.437,5.693
					c-1.964,1.596-4.399,2.844-7.307,3.732c-2.904,0.891-6.27,1.334-10.092,1.334c-3.091,0-6.088-0.383-8.993-1.139
					c-2.907-0.76-5.473-1.953-7.697-3.574c-2.227-1.621-3.994-3.693-5.302-6.205c-1.31-2.514-1.937-5.5-1.885-8.957h11.939
					C136.925,460.045,137.265,461.641,137.946,462.951z"/>
				<path fill="#F0F0F0" d="M193.051,420.694l13.119,38.566h0.157l12.408-38.566h17.358v56.08h-11.546v-39.744h-0.157
					l-13.746,39.744h-9.502l-13.746-39.348h-0.157v39.348h-11.546v-56.08H193.051z"/>
				<path fill="#F0F0F0" d="M254.999,420.694v56.08h-12.331v-56.08H254.999z"/>
				<path fill="#F0F0F0" d="M256.716,431.062v-10.369h45.955v10.369h-16.81v45.711h-12.331v-45.711H256.716z"/>
				<path fill="#F0F0F0" d="M316.724,420.694v21.521h22.695v-21.521h12.336v56.08h-12.336v-24.191h-22.695v24.191H304.39v-56.08
					H316.724z"/>
				<path fill="#F0F0F0" d="M368.001,462.951c0.682,1.309,1.586,2.367,2.715,3.18c1.119,0.814,2.445,1.416,3.965,1.807
					s3.088,0.592,4.709,0.592c1.102,0,2.277-0.094,3.537-0.277c1.258-0.186,2.436-0.537,3.535-1.062
					c1.098-0.521,2.014-1.242,2.746-2.16c0.736-0.912,1.102-2.078,1.102-3.492c0-1.52-0.486-2.75-1.453-3.693
					c-0.967-0.939-2.24-1.725-3.809-2.355c-1.57-0.629-3.354-1.178-5.344-1.648c-1.99-0.473-4.004-0.994-6.043-1.572
					c-2.098-0.521-4.143-1.162-6.129-1.926c-1.99-0.756-3.77-1.736-5.342-2.945c-1.57-1.201-2.844-2.707-3.809-4.514
					c-0.971-1.807-1.455-3.992-1.455-6.559c0-2.88,0.619-5.381,1.846-7.502c1.23-2.121,2.842-3.888,4.832-5.3
					c1.986-1.415,4.242-2.461,6.754-3.144c2.512-0.679,5.029-1.021,7.541-1.021c2.934,0,5.748,0.331,8.445,0.981
					c2.695,0.656,5.088,1.713,7.182,3.183c2.094,1.465,3.758,3.337,4.99,5.614c1.23,2.279,1.844,5.041,1.844,8.289h-11.934
					c-0.107-1.678-0.461-3.065-1.064-4.165c-0.6-1.102-1.398-1.965-2.396-2.593c-0.992-0.63-2.131-1.07-3.412-1.336
					c-1.285-0.261-2.686-0.391-4.203-0.391c-0.998,0-1.99,0.104-2.984,0.315c-0.998,0.206-1.902,0.575-2.711,1.097
					c-0.814,0.525-1.48,1.18-2.002,1.964c-0.527,0.786-0.787,1.782-0.787,2.987c0,1.096,0.209,1.99,0.629,2.67
					c0.418,0.678,1.242,1.307,2.475,1.883c1.23,0.578,2.934,1.154,5.104,1.73c2.172,0.574,5.018,1.307,8.523,2.195
					c1.047,0.211,2.5,0.59,4.359,1.141s3.701,1.43,5.535,2.631c1.832,1.207,3.42,2.818,4.756,4.832
					c1.334,2.018,2.002,4.594,2.002,7.736c0,2.564-0.5,4.945-1.492,7.148c-0.994,2.197-2.475,4.094-4.438,5.693
					c-1.965,1.596-4.398,2.844-7.307,3.732c-2.902,0.891-6.271,1.334-10.09,1.334c-3.092,0-6.092-0.383-8.998-1.139
					c-2.906-0.76-5.469-1.953-7.693-3.574c-2.229-1.621-3.996-3.693-5.305-6.205c-1.307-2.514-1.936-5.5-1.883-8.957h11.936
					C366.979,460.045,367.321,461.641,368.001,462.951z"/>
			</g>
		</g>
	</g>
</g>
</svg>
