<?xml version="1.0" encoding="utf-8"?>
<!-- Generator: Adobe Illustrator 15.0.0, SVG Export Plug-In . SVG Version: 6.00 Build 0)  -->
<!DOCTYPE svg PUBLIC "-//W3C//DTD SVG 1.1//EN" "http://www.w3.org/Graphics/SVG/1.1/DTD/svg11.dtd">
<svg version="1.1" id="Layer_1" xmlns="http://www.w3.org/2000/svg" xmlns:xlink="http://www.w3.org/1999/xlink" x="0px" y="0px"
	 width="595.28px" height="841.89px" viewBox="0 0 595.28 841.89" enable-background="new 0 0 595.28 841.89" xml:space="preserve">
<g>
	<circle fill="#F0F0F0" cx="297.64" cy="420.945" r="171.176"/>
	<g>
		<g>
			<path fill="#282828" d="M202.454,304.889v23.896h25.203v-23.896h13.691v62.268h-13.691v-26.859h-25.203v26.859h-13.692v-62.268
				H202.454z"/>
			<path fill="#282828" d="M279.859,304.889l23.284,62.268h-14.212l-4.712-13.864h-23.284l-4.885,13.864h-13.778l23.547-62.268
				H279.859z M280.645,343.087l-7.849-22.849h-0.175l-8.11,22.849H280.645z"/>
			<path fill="#282828" d="M341.114,321.505c-0.818-1.309-1.832-2.456-3.053-3.444c-1.223-0.99-2.603-1.758-4.144-2.314
				c-1.536-0.549-3.153-0.828-4.839-0.828c-3.083,0-5.699,0.598-7.847,1.787c-2.152,1.193-3.898,2.792-5.235,4.799
				c-1.337,2.003-2.309,4.287-2.921,6.843c-0.61,2.56-0.917,5.206-0.917,7.937c0,2.617,0.307,5.161,0.917,7.633
				c0.612,2.472,1.584,4.695,2.921,6.669c1.337,1.978,3.083,3.564,5.235,4.752c2.147,1.193,4.764,1.788,7.847,1.788
				c4.188,0,7.457-1.276,9.81-3.835c2.357-2.56,3.793-5.93,4.317-10.118h13.257c-0.349,3.897-1.25,7.413-2.705,10.554
				c-1.453,3.137-3.373,5.812-5.755,8.023c-2.385,2.21-5.173,3.894-8.37,5.058c-3.201,1.163-6.716,1.744-10.554,1.744
				c-4.767,0-9.055-0.83-12.863-2.484c-3.81-1.658-7.021-3.938-9.634-6.847c-2.618-2.905-4.626-6.324-6.019-10.247
				c-1.396-3.926-2.093-8.152-2.093-12.689c0-4.649,0.697-8.967,2.093-12.951c1.393-3.981,3.4-7.455,6.019-10.421
				c2.612-2.963,5.824-5.289,9.634-6.976c3.809-1.684,8.097-2.527,12.863-2.527c3.43,0,6.672,0.494,9.726,1.479
				c3.049,0.993,5.783,2.43,8.193,4.317c2.414,1.892,4.408,4.231,5.976,7.022c1.569,2.789,2.556,5.988,2.965,9.594h-13.257
				C342.449,324.252,341.925,322.811,341.114,321.505z"/>
			<path fill="#282828" d="M374.143,304.889v25.815l24.327-25.815h17.094l-24.331,24.594l26.688,37.674h-17.182l-18.753-27.992
				l-7.844,7.936v20.057h-13.694v-62.268H374.143z"/>
		</g>
		<g>
			<path fill="#282828" d="M195.252,407.1c0.573,1.102,1.334,1.995,2.284,2.679c0.947,0.685,2.062,1.192,3.342,1.521
				c1.279,0.33,2.603,0.498,3.971,0.498c0.925,0,1.918-0.077,2.978-0.232c1.058-0.155,2.053-0.452,2.979-0.896
				c0.926-0.439,1.697-1.047,2.316-1.818c0.617-0.771,0.926-1.752,0.926-2.945c0-1.28-0.409-2.317-1.225-3.111
				c-0.815-0.792-1.886-1.455-3.209-1.985c-1.323-0.53-2.824-0.992-4.501-1.389s-3.373-0.837-5.095-1.325
				c-1.766-0.438-3.486-0.979-5.162-1.622c-1.677-0.637-3.176-1.464-4.501-2.482c-1.323-1.011-2.394-2.281-3.208-3.803
				c-0.818-1.521-1.226-3.363-1.226-5.525c0-2.426,0.519-4.533,1.557-6.32c1.035-1.787,2.393-3.278,4.069-4.467
				c1.676-1.191,3.574-2.073,5.689-2.649c2.119-0.572,4.237-0.86,6.354-0.86c2.469,0,4.842,0.278,7.114,0.828
				c2.271,0.553,4.29,1.444,6.054,2.682c1.766,1.236,3.166,2.812,4.203,4.731c1.037,1.92,1.556,4.246,1.556,6.983h-10.06
				c-0.088-1.412-0.386-2.582-0.893-3.509c-0.508-0.927-1.181-1.654-2.019-2.184c-0.839-0.53-1.798-0.902-2.879-1.125
				c-1.08-0.219-2.262-0.329-3.54-0.329c-0.839,0-1.677,0.086-2.516,0.265c-0.838,0.175-1.599,0.484-2.282,0.924
				c-0.686,0.442-1.248,0.996-1.688,1.654c-0.442,0.664-0.662,1.503-0.662,2.518c0,0.924,0.176,1.677,0.529,2.249
				c0.353,0.572,1.048,1.101,2.085,1.586c1.035,0.488,2.47,0.973,4.301,1.458c1.831,0.484,4.225,1.102,7.18,1.851
				c0.882,0.177,2.107,0.498,3.674,0.959c1.565,0.466,3.12,1.206,4.665,2.218c1.545,1.017,2.879,2.375,4.006,4.071
				c1.124,1.7,1.687,3.872,1.687,6.518c0,2.161-0.421,4.168-1.258,6.022c-0.839,1.853-2.084,3.452-3.738,4.799
				c-1.655,1.344-3.706,2.395-6.156,3.144c-2.447,0.749-5.282,1.124-8.504,1.124c-2.604,0-5.128-0.323-7.576-0.959
				c-2.449-0.64-4.611-1.645-6.485-3.012c-1.876-1.367-3.366-3.112-4.468-5.229c-1.104-2.117-1.632-4.634-1.588-7.545h10.059
				C194.392,404.65,194.678,405.995,195.252,407.1z"/>
			<path fill="#282828" d="M241.681,371.494l11.054,32.494h0.132l10.455-32.494h14.625v47.252h-9.729v-33.486h-0.132l-11.581,33.486
				h-8.008l-11.581-33.154h-0.132v33.154h-9.729v-47.252H241.681z"/>
			<path fill="#282828" d="M293.876,371.494v47.252h-10.389v-47.252H293.876z"/>
			<path fill="#282828" d="M295.323,380.231v-8.738h38.717v8.738h-14.161v38.514h-10.39v-38.514H295.323z"/>
			<path fill="#282828" d="M345.881,371.494v18.135h19.122v-18.135h10.392v47.252h-10.392v-20.383h-19.122v20.383h-10.392v-47.252
				H345.881z"/>
			<path fill="#282828" d="M389.083,407.1c0.576,1.102,1.339,1.995,2.288,2.679c0.944,0.685,2.062,1.192,3.341,1.521
				c1.281,0.33,2.601,0.498,3.968,0.498c0.929,0,1.92-0.077,2.98-0.232c1.06-0.155,2.052-0.452,2.979-0.896
				c0.925-0.439,1.696-1.047,2.314-1.818c0.619-0.771,0.927-1.752,0.927-2.945c0-1.28-0.41-2.317-1.225-3.111
				c-0.813-0.792-1.888-1.455-3.209-1.985c-1.321-0.53-2.823-0.992-4.502-1.389c-1.676-0.397-3.372-0.837-5.093-1.325
				c-1.767-0.438-3.489-0.979-5.163-1.622c-1.676-0.637-3.175-1.464-4.5-2.482c-1.323-1.011-2.395-2.281-3.209-3.803
				c-0.817-1.521-1.226-3.363-1.226-5.525c0-2.426,0.521-4.533,1.556-6.32c1.037-1.787,2.393-3.278,4.071-4.467
				c1.674-1.191,3.573-2.073,5.691-2.649c2.114-0.572,4.234-0.86,6.351-0.86c2.474,0,4.846,0.278,7.116,0.828
				c2.271,0.553,4.288,1.444,6.052,2.682c1.764,1.236,3.167,2.812,4.204,4.731c1.038,1.92,1.555,4.246,1.555,6.983h-10.057
				c-0.089-1.412-0.387-2.582-0.894-3.509c-0.508-0.927-1.181-1.654-2.02-2.184c-0.837-0.53-1.798-0.902-2.877-1.125
				c-1.081-0.219-2.262-0.329-3.541-0.329c-0.841,0-1.678,0.086-2.513,0.265c-0.841,0.175-1.604,0.484-2.286,0.924
				c-0.685,0.442-1.247,0.996-1.686,1.654c-0.442,0.664-0.664,1.503-0.664,2.518c0,0.924,0.176,1.677,0.53,2.249
				c0.353,0.572,1.047,1.101,2.084,1.586c1.037,0.488,2.473,0.973,4.302,1.458c1.828,0.484,4.227,1.102,7.179,1.851
				c0.883,0.177,2.106,0.498,3.674,0.959c1.567,0.466,3.119,1.206,4.664,2.218c1.544,1.017,2.883,2.375,4.006,4.071
				c1.125,1.7,1.688,3.872,1.688,6.518c0,2.161-0.419,4.168-1.257,6.022c-0.837,1.853-2.086,3.452-3.738,4.799
				c-1.655,1.344-3.707,2.395-6.157,3.144c-2.444,0.749-5.281,1.124-8.5,1.124c-2.604,0-5.131-0.323-7.581-0.959
				c-2.448-0.64-4.608-1.645-6.483-3.012c-1.876-1.367-3.367-3.112-4.469-5.229c-1.101-2.117-1.632-4.634-1.587-7.545h10.057
				C388.224,404.65,388.512,405.995,389.083,407.1z"/>
		</g>
	</g>
	<path fill="#4879BC" d="M187.434,446.676v-22.742h144.216v12.625h91.099c0,0-2.887,14.441-38.001,21.561
		c-25.982,5.285-53.098,3.705-53.098,34.035c0,30.322,37.955,37.906,37.955,37.906v15.164h-53.133c0,0,0-22.748-22.771-22.748
		c-22.768,0-22.768,22.748-22.768,22.748h-53.129v-15.164c0,0,37.937-7.584,37.937-37.906
		C255.741,454.256,187.434,446.676,187.434,446.676z"/>
</g>
</svg>
