<?xml version="1.0" encoding="utf-8"?>
<!-- Generator: Adobe Illustrator 15.0.0, SVG Export Plug-In . SVG Version: 6.00 Build 0)  -->
<!DOCTYPE svg PUBLIC "-//W3C//DTD SVG 1.1//EN" "http://www.w3.org/Graphics/SVG/1.1/DTD/svg11.dtd">
<svg version="1.1" id="Layer_1" xmlns="http://www.w3.org/2000/svg" xmlns:xlink="http://www.w3.org/1999/xlink" x="0px" y="0px"
	 width="595.28px" height="841.89px" viewBox="0 0 595.28 841.89" enable-background="new 0 0 595.28 841.89" xml:space="preserve">
<g>
	<path fill="#282828" d="M463.956,420.945c0,91.854-74.464,166.314-166.314,166.314c-91.859,0-166.317-74.461-166.317-166.314
		c0-91.854,74.458-166.315,166.317-166.315C389.492,254.63,463.956,329.091,463.956,420.945z"/>
	<g>
		<g>
			<g>
				<path fill="#F0F0F0" d="M205.154,308.188v23.214h24.487v-23.214h13.302v60.5h-13.302v-26.097h-24.487v26.097h-13.304v-60.5
					H205.154z"/>
				<path fill="#F0F0F0" d="M280.361,308.188l22.623,60.5h-13.811l-4.574-13.476h-22.625l-4.746,13.476h-13.387l22.878-60.5H280.361
					z M281.124,345.298l-7.626-22.197h-0.17l-7.88,22.197H281.124z"/>
				<path fill="#F0F0F0" d="M339.874,324.331c-0.791-1.274-1.776-2.386-2.963-3.347c-1.188-0.96-2.531-1.708-4.025-2.247
					c-1.497-0.534-3.064-0.805-4.703-0.805c-2.995,0-5.538,0.578-7.626,1.733c-2.091,1.162-3.783,2.713-5.083,4.665
					c-1.3,1.947-2.248,4.163-2.838,6.65c-0.597,2.486-0.892,5.055-0.892,7.71c0,2.544,0.295,5.011,0.892,7.416
					c0.59,2.398,1.538,4.559,2.838,6.48c1.3,1.921,2.992,3.459,5.083,4.615c2.088,1.161,4.631,1.739,7.626,1.739
					c4.069,0,7.246-1.244,9.532-3.73c2.288-2.486,3.686-5.758,4.194-9.826h12.878c-0.339,3.786-1.215,7.202-2.624,10.254
					c-1.413,3.045-3.278,5.645-5.595,7.792c-2.317,2.147-5.026,3.786-8.132,4.916c-3.108,1.131-6.524,1.696-10.254,1.696
					c-4.634,0-8.797-0.811-12.498-2.418c-3.702-1.607-6.822-3.824-9.362-6.649c-2.54-2.826-4.493-6.147-5.846-9.959
					c-1.356-3.812-2.035-7.918-2.035-12.326c0-4.521,0.679-8.715,2.035-12.583c1.353-3.868,3.306-7.246,5.846-10.128
					c2.54-2.876,5.66-5.137,9.362-6.775c3.701-1.639,7.864-2.455,12.498-2.455c3.334,0,6.48,0.478,9.447,1.438
					c2.967,0.961,5.619,2.361,7.965,4.195c2.342,1.833,4.279,4.106,5.802,6.818c1.526,2.713,2.486,5.821,2.882,9.325H341.4
					C341.174,327,340.666,325.6,339.874,324.331z"/>
				<path fill="#F0F0F0" d="M371.964,308.188v25.079l23.638-25.079h16.608l-23.641,23.893l25.93,36.607h-16.693l-18.216-27.201
					l-7.626,7.711v19.49h-13.303v-60.5H371.964z"/>
			</g>
			<g>
				<path fill="#F0F0F0" d="M198.156,407.492c0.558,1.073,1.297,1.94,2.22,2.605c0.92,0.666,2.003,1.155,3.246,1.476
					s2.529,0.483,3.858,0.483c0.899,0,1.864-0.075,2.894-0.226c1.028-0.15,1.993-0.439,2.893-0.866
					c0.9-0.428,1.65-1.018,2.252-1.771c0.6-0.747,0.899-1.701,0.899-2.856c0-1.243-0.397-2.254-1.19-3.026
					c-0.793-0.767-1.832-1.413-3.117-1.928c-1.286-0.516-2.744-0.961-4.373-1.351c-1.63-0.383-3.278-0.81-4.95-1.287
					c-1.716-0.427-3.388-0.948-5.016-1.576c-1.629-0.615-3.086-1.419-4.373-2.411c-1.286-0.979-2.325-2.216-3.117-3.691
					c-0.795-1.482-1.19-3.271-1.19-5.369c0-2.361,0.504-4.408,1.512-6.141c1.006-1.739,2.325-3.184,3.954-4.339
					c1.628-1.162,3.473-2.016,5.529-2.575c2.058-0.559,4.116-0.835,6.172-0.835c2.4,0,4.705,0.271,6.913,0.804
					c2.208,0.534,4.168,1.4,5.883,2.606c1.714,1.199,3.075,2.731,4.083,4.596c1.008,1.865,1.512,4.126,1.512,6.781h-9.773
					c-0.087-1.368-0.376-2.505-0.868-3.409c-0.493-0.897-1.147-1.607-1.961-2.122c-0.814-0.515-1.747-0.873-2.798-1.093
					c-1.05-0.214-2.197-0.32-3.438-0.32c-0.815,0-1.63,0.088-2.444,0.258c-0.815,0.169-1.555,0.471-2.219,0.897
					c-0.665,0.434-1.212,0.967-1.639,1.607c-0.43,0.647-0.644,1.463-0.644,2.449c0,0.897,0.171,1.626,0.515,2.185
					c0.343,0.553,1.018,1.068,2.025,1.539c1.006,0.477,2.4,0.948,4.179,1.419s4.105,1.067,6.977,1.796
					c0.856,0.176,2.047,0.483,3.569,0.936c1.521,0.452,3.031,1.168,4.532,2.153c1.5,0.986,2.797,2.305,3.891,3.956
					c1.093,1.651,1.64,3.762,1.64,6.329c0,2.104-0.408,4.051-1.222,5.853c-0.814,1.802-2.025,3.353-3.633,4.665
					c-1.607,1.307-3.601,2.323-5.98,3.052c-2.378,0.729-5.133,1.093-8.262,1.093c-2.53,0-4.984-0.314-7.362-0.93
					c-2.38-0.621-4.48-1.601-6.301-2.926c-1.823-1.331-3.271-3.026-4.341-5.08c-1.072-2.06-1.585-4.502-1.543-7.334h9.773
					C197.321,405.112,197.6,406.418,198.156,407.492z"/>
				<path fill="#F0F0F0" d="M243.268,372.9l10.738,31.571h0.129l10.158-31.571h14.209v45.906h-9.451v-32.531h-0.129l-11.252,32.531
					h-7.78l-11.252-32.212h-0.129v32.212h-9.451V372.9H243.268z"/>
				<path fill="#F0F0F0" d="M293.98,372.9v45.906h-10.097V372.9H293.98z"/>
				<path fill="#F0F0F0" d="M295.387,381.39V372.9h37.615v8.489h-13.761v37.417h-10.094V381.39H295.387z"/>
				<path fill="#F0F0F0" d="M344.505,372.9v17.619h18.583V372.9h10.094v45.906h-10.094v-19.804h-18.583v19.804h-10.094V372.9
					H344.505z"/>
				<path fill="#F0F0F0" d="M386.484,407.492c0.559,1.073,1.297,1.94,2.22,2.605c0.92,0.666,2.003,1.155,3.246,1.476
					s2.527,0.483,3.858,0.483c0.898,0,1.865-0.075,2.895-0.226c1.027-0.15,1.991-0.439,2.892-0.866
					c0.901-0.428,1.648-1.018,2.251-1.771c0.6-0.747,0.898-1.701,0.898-2.856c0-1.243-0.396-2.254-1.187-3.026
					c-0.795-0.767-1.834-1.413-3.121-1.928c-1.284-0.516-2.744-0.961-4.37-1.351c-1.633-0.383-3.278-0.81-4.951-1.287
					c-1.718-0.427-3.388-0.948-5.014-1.576c-1.633-0.615-3.09-1.419-4.377-2.411c-1.284-0.979-2.323-2.216-3.114-3.691
					c-0.798-1.482-1.193-3.271-1.193-5.369c0-2.361,0.506-4.408,1.514-6.141c1.005-1.739,2.323-3.184,3.956-4.339
					c1.626-1.162,3.472-2.016,5.525-2.575c2.06-0.559,4.119-0.835,6.172-0.835c2.402,0,4.707,0.271,6.914,0.804
					c2.21,0.534,4.169,1.4,5.883,2.606c1.715,1.199,3.077,2.731,4.082,4.596c1.011,1.865,1.513,4.126,1.513,6.781h-9.773
					c-0.084-1.368-0.373-2.505-0.869-3.409c-0.49-0.897-1.146-1.607-1.959-2.122c-0.816-0.515-1.746-0.873-2.798-1.093
					c-1.052-0.214-2.197-0.32-3.438-0.32c-0.816,0-1.633,0.088-2.446,0.258c-0.812,0.169-1.554,0.471-2.219,0.897
					c-0.666,0.434-1.212,0.967-1.64,1.607c-0.427,0.647-0.64,1.463-0.64,2.449c0,0.897,0.169,1.626,0.515,2.185
					c0.339,0.553,1.017,1.068,2.021,1.539c1.008,0.477,2.402,0.948,4.182,1.419c1.777,0.471,4.104,1.067,6.977,1.796
					c0.854,0.176,2.047,0.483,3.566,0.936c1.522,0.452,3.033,1.168,4.533,2.153c1.501,0.986,2.798,2.305,3.894,3.956
					c1.093,1.651,1.639,3.762,1.639,6.329c0,2.104-0.408,4.051-1.225,5.853c-0.812,1.802-2.021,3.353-3.629,4.665
					c-1.607,1.307-3.604,2.323-5.984,3.052c-2.376,0.729-5.13,1.093-8.26,1.093c-2.53,0-4.982-0.314-7.362-0.93
					c-2.38-0.621-4.48-1.601-6.301-2.926c-1.824-1.331-3.269-3.026-4.343-5.08c-1.07-2.06-1.582-4.502-1.541-7.334h9.773
					C385.649,405.112,385.926,406.418,386.484,407.492z"/>
			</g>
		</g>
	</g>
	<path fill="#4879BC" d="M190.562,445.945V423.85h140.12v12.266h88.511c0,0-2.801,14.031-36.921,20.951
		c-25.242,5.133-51.59,3.598-51.59,33.065c0,29.462,36.877,36.83,36.877,36.83v14.733h-51.62c0,0,0-22.102-22.128-22.102
		c-22.122,0-22.122,22.102-22.122,22.102h-51.621v-14.733c0,0,36.858-7.368,36.858-36.83
		C256.926,453.311,190.562,445.945,190.562,445.945z"/>
</g>
</svg>
